<svg width="1886" height="416" viewBox="0 166 1886 416" fill="none" xmlns="http://www.w3.org/2000/svg">
    <rect width="1886" height="809" fill="transparent"/>
    <path d="M176.546 369.413C159.008 358.854 140.204 352.052 120.133 349.007V522.914H72.7813V349.007C52.7104 352.052 33.8087 358.854 16.0762 369.413L0 332.56C14.0301 323.829 29.2294 317.23 45.5979 312.763C61.9664 308.296 78.8221 306.063 96.1649 306.063C113.703 306.063 130.656 308.296 147.024 312.763C163.587 317.23 178.787 323.829 192.622 332.56L176.546 369.413Z" fill="#8d7cba"/>
    <path d="M263.044 380.681C268.501 372.763 275.808 366.773 284.966 362.712C294.32 358.651 305.037 356.621 317.119 356.621V400.478C312.052 400.072 308.642 399.869 306.889 399.869C293.833 399.869 283.602 403.727 276.198 411.443C268.793 418.955 265.09 430.326 265.09 445.554V522.914H219.493V359.057H263.044V380.681Z" fill="#8d7cba"/>
    <path d="M514.089 359.057V522.914H470.537V504.031C459.235 518.244 442.866 525.35 421.431 525.35C406.622 525.35 393.176 521.899 381.095 514.995C369.208 508.092 359.855 498.244 353.035 485.452C346.214 472.66 342.804 457.838 342.804 440.986C342.804 424.133 346.214 409.311 353.035 396.519C359.855 383.727 369.208 373.879 381.095 366.976C393.176 360.072 406.622 356.621 421.431 356.621C441.502 356.621 457.189 363.22 468.491 376.418V359.057H514.089ZM429.323 486.366C440.82 486.366 450.369 482.305 457.968 474.183C465.568 465.858 469.368 454.793 469.368 440.986C469.368 427.179 465.568 416.214 457.968 408.092C450.369 399.768 440.82 395.605 429.323 395.605C417.632 395.605 407.986 399.768 400.386 408.092C392.787 416.214 388.987 427.179 388.987 440.986C388.987 454.793 392.787 465.858 400.386 474.183C407.986 482.305 417.632 486.366 429.323 486.366Z" fill="#8d7cba"/>
    <path d="M769.387 356.621C789.069 356.621 804.658 362.712 816.154 374.895C827.846 386.874 833.692 404.945 833.692 429.107V522.914H788.094V436.417C788.094 423.422 785.464 413.778 780.202 407.483C775.136 400.986 767.828 397.737 758.28 397.737C747.563 397.737 739.086 401.392 732.851 408.702C726.615 415.808 723.497 426.468 723.497 440.681V522.914H677.899V436.417C677.899 410.63 667.961 397.737 648.085 397.737C637.563 397.737 629.184 401.392 622.948 408.702C616.712 415.808 613.594 426.468 613.594 440.681V522.914H567.997V359.057H611.548V377.94C617.394 371.037 624.507 365.758 632.886 362.103C641.46 358.448 650.813 356.621 660.946 356.621C672.053 356.621 682.089 358.956 691.052 363.626C700.016 368.093 707.226 374.692 712.682 383.423C719.113 374.895 727.2 368.296 736.943 363.626C746.881 358.956 757.696 356.621 769.387 356.621Z" fill="#8d7cba"/>
    <path d="M979.205 356.621C993.819 356.621 1007.07 360.174 1018.96 367.281C1031.04 374.184 1040.49 384.032 1047.31 396.823C1054.13 409.412 1057.54 424.133 1057.54 440.986C1057.54 457.838 1054.13 472.66 1047.31 485.452C1040.49 498.041 1031.04 507.889 1018.96 514.995C1007.07 521.899 993.819 525.35 979.205 525.35C959.134 525.35 943.35 518.751 931.853 505.554V582H886.255V359.057H929.807V377.94C941.109 363.727 957.575 356.621 979.205 356.621ZM971.313 486.366C983.004 486.366 992.553 482.305 999.957 474.183C1007.56 465.858 1011.36 454.793 1011.36 440.986C1011.36 427.179 1007.56 416.214 999.957 408.092C992.553 399.768 983.004 395.605 971.313 395.605C959.621 395.605 949.975 399.768 942.375 408.092C934.971 416.214 931.268 427.179 931.268 440.986C931.268 454.793 934.971 465.858 942.375 474.183C949.975 482.305 959.621 486.366 971.313 486.366Z" fill="#8d7cba"/>
    <path d="M1174.58 525.35C1158.02 525.35 1143.11 521.797 1129.86 514.691C1116.81 507.381 1106.58 497.33 1099.17 484.539C1091.77 471.747 1088.06 457.229 1088.06 440.986C1088.06 424.742 1091.77 410.224 1099.17 397.433C1106.58 384.641 1116.81 374.692 1129.86 367.585C1143.11 360.276 1158.02 356.621 1174.58 356.621C1191.15 356.621 1205.96 360.276 1219.01 367.585C1232.07 374.692 1242.3 384.641 1249.7 397.433C1257.11 410.224 1260.81 424.742 1260.81 440.986C1260.81 457.229 1257.11 471.747 1249.7 484.539C1242.3 497.33 1232.07 507.381 1219.01 514.691C1205.96 521.797 1191.15 525.35 1174.58 525.35ZM1174.58 486.366C1186.27 486.366 1195.82 482.305 1203.23 474.183C1210.83 465.858 1214.63 454.793 1214.63 440.986C1214.63 427.179 1210.83 416.214 1203.23 408.092C1195.82 399.768 1186.27 395.605 1174.58 395.605C1162.89 395.605 1153.25 399.768 1145.65 408.092C1138.05 416.214 1134.25 427.179 1134.25 440.986C1134.25 454.793 1138.05 465.858 1145.65 474.183C1153.25 482.305 1162.89 486.366 1174.58 486.366Z" fill="#8d7cba"/>
    <path d="M1359.39 525.35C1341.66 525.35 1327.82 520.477 1317.89 510.731C1307.95 500.782 1302.98 486.772 1302.98 468.701V296.926H1348.58V465.96C1348.58 472.863 1350.23 478.244 1353.55 482.102C1357.05 485.757 1361.93 487.584 1368.16 487.584C1370.5 487.584 1372.84 487.28 1375.18 486.67C1377.71 486.061 1379.66 485.351 1381.02 484.539L1383.07 521.391C1375.47 524.031 1367.58 525.35 1359.39 525.35Z" fill="#8d7cba"/>
    <path d="M1417.15 359.057H1462.74V522.914H1417.15V359.057Z" fill="#8d7cba"/>
    <path d="M1612.33 356.621C1631.82 356.621 1647.51 362.712 1659.39 374.895C1671.48 387.077 1677.52 405.148 1677.52 429.107V522.914H1631.92V436.417C1631.92 423.422 1629.19 413.778 1623.73 407.483C1618.28 400.986 1610.39 397.737 1600.06 397.737C1588.56 397.737 1579.4 401.493 1572.58 409.006C1565.76 416.316 1562.35 427.28 1562.35 441.899V522.914H1516.75V359.057H1560.31V378.245C1566.35 371.341 1573.85 366.062 1582.81 362.408C1591.78 358.55 1601.62 356.621 1612.33 356.621Z" fill="#8d7cba"/>
    <path d="M1811.46 487.28C1819.65 487.28 1826.86 486.061 1833.09 483.625C1839.53 480.985 1845.47 476.924 1850.92 471.442L1875.19 498.853C1860.38 516.518 1838.75 525.35 1810.3 525.35C1792.56 525.35 1776.88 521.797 1763.24 514.691C1749.6 507.381 1739.07 497.33 1731.67 484.539C1724.26 471.747 1720.56 457.229 1720.56 440.986C1720.56 424.945 1724.17 410.529 1731.38 397.737C1738.78 384.742 1748.82 374.692 1761.48 367.585C1774.34 360.276 1788.76 356.621 1804.74 356.621C1819.75 356.621 1833.39 359.971 1845.66 366.671C1857.94 373.169 1867.68 382.712 1874.89 395.301C1882.3 407.686 1886 422.407 1886 439.463L1769.67 462.914C1772.98 471.036 1778.14 477.127 1785.16 481.188C1792.37 485.249 1801.14 487.28 1811.46 487.28ZM1804.74 392.56C1793.25 392.56 1783.89 396.417 1776.68 404.133C1769.47 411.849 1765.67 422.509 1765.28 436.112L1841.86 420.58C1839.72 412.052 1835.34 405.25 1828.71 400.174C1822.08 395.098 1814.1 392.56 1804.74 392.56Z" fill="#8d7cba"/>
    <path d="M1417.15 359.057H1462.74V522.914H1417.15V359.057Z" fill="#8d7cba"/>
    <path d="M1439.57 218.347C1432.14 218.347 1426.1 215.84 1421.44 210.826C1416.78 205.812 1414.45 199.595 1414.45 192.174C1414.45 184.753 1416.78 178.535 1421.44 173.521C1426.1 168.507 1432.14 166 1439.57 166C1446.99 166 1453.03 168.407 1457.7 173.22C1462.36 178.034 1464.69 184.051 1464.69 191.271C1464.69 199.093 1462.36 205.611 1457.7 210.826C1453.03 215.84 1446.99 218.347 1439.57 218.347Z" fill="#8d7cba"/>
    <path d="M1439.57 218.347C1432.14 218.347 1426.1 215.84 1421.44 210.826C1416.78 205.812 1414.45 199.595 1414.45 192.174C1414.45 184.753 1416.78 178.535 1421.44 173.521C1426.1 168.507 1432.14 166 1439.57 166C1446.99 166 1453.03 168.407 1457.7 173.22C1462.36 178.034 1464.69 184.051 1464.69 191.271C1464.69 199.093 1462.36 205.611 1457.7 210.826C1453.03 215.84 1446.99 218.347 1439.57 218.347Z" fill="#8d7cba"/>
</svg>